<svg width="225" height="402" viewBox="0 0 225 402" fill="none" xmlns="http://www.w3.org/2000/svg">
<path d="M166.194 400H98.1278H97.2822V340.283C94.5469 333.725 91.5262 331.269 83.7535 328.847L72.7615 325.035C56.7155 314.954 52.5411 305.899 56.2734 281.836L120.112 37.4598C125.253 24.3553 130.033 18.3649 141.673 9.93049C159.229 1.50625 169.482 -0.690889 189.447 5.69521C206.142 14.5831 209.107 18.4915 212.699 25.1775C217.593 34.9224 219.58 40.5911 222 51.0127C220.583 75.2172 215.353 87.0535 197.479 104.801C186.305 111.493 183.197 117.859 183.951 134.448L206.357 226.353C210.753 246.732 210.973 258.133 208.049 278.447C181.66 287.198 172.378 299.109 166.194 333.506V400Z" stroke="#5B2674" stroke-width="4"/>
<path d="M116 51.8702L113.018 50.6177L114.722 45.19C107.355 42.9666 104.016 39.8474 99.812 30.1596C97.4835 22.3375 94.7425 19.8413 87.4579 18.4692C79.308 17.0855 76.1133 18.7237 71.6959 23.8969C69.9656 25.7975 69.1258 26.9854 67.8619 29.3246C59.535 30.1247 56.9422 33.1207 55.0818 41.8499C54.5991 49.2746 56.2282 51.7365 60.6198 54.7928C60.9947 64.5728 62.8255 68.2269 67.8619 72.7459C79.1847 76.8074 83.1097 75.1088 88.7359 69.8233C94.3995 64.8292 97.3572 63.3476 102.368 62.3081L109.61 63.5606L110.888 58.1329L113.87 58.968" stroke="#5B2674" stroke-width="2"/>
<path d="M62 261.87L59.018 260.618L60.722 255.19C53.3554 252.967 50.0164 249.847 45.812 240.16C43.4835 232.337 40.7425 229.841 33.4579 228.469C25.308 227.085 22.1133 228.724 17.6959 233.897C15.9656 235.797 15.1258 236.985 13.8619 239.325C5.53501 240.125 2.94223 243.121 1.08182 251.85C0.599056 259.275 2.22821 261.737 6.61984 264.793C6.99471 274.573 8.82548 278.227 13.8619 282.746C25.1847 286.807 29.1097 285.109 34.7359 279.823C40.3995 274.829 43.3572 273.348 48.368 272.308L55.61 273.561L56.888 268.133L59.87 268.968" stroke="#5B2674" stroke-width="2"/>
<path d="M80 191.464L77.0669 190.19L78.7429 184.667C71.4971 182.405 68.2129 179.231 64.0773 169.373C61.7871 161.414 59.091 158.874 51.9258 157.477C43.9096 156.069 40.7671 157.736 36.4222 163C34.7203 164.934 33.8943 166.143 32.651 168.523C24.4607 169.337 21.9104 172.386 20.0805 181.268C19.6056 188.823 21.2081 191.328 25.5277 194.438C25.8964 204.39 27.6972 208.108 32.651 212.706C43.7882 216.839 47.6489 215.111 53.1829 209.732C58.7536 204.651 61.6628 203.143 66.5914 202.085L73.7147 203.36L74.9718 197.837L77.9049 198.687" stroke="#5B2674" stroke-width="2"/>
<path d="M98 122.464L95.018 121.19L96.722 115.667C89.3554 113.405 86.0164 110.231 81.812 100.373C79.4835 92.4136 76.7425 89.8736 69.4579 88.4775C61.308 87.0694 58.1133 88.7364 53.6959 94.0003C51.9656 95.9343 51.1258 97.1431 49.8619 99.5232C41.535 100.337 38.9422 103.386 37.0818 112.268C36.5991 119.823 38.2282 122.328 42.6198 125.438C42.9947 135.39 44.8255 139.108 49.8619 143.706C61.1847 147.839 65.1097 146.111 70.7359 140.732C76.3995 135.651 79.3572 134.143 84.368 133.085L91.61 134.36L92.888 128.837L95.87 129.687" stroke="#5B2674" stroke-width="2"/>
<path d="M165.5 81C165.5 90.6784 157.876 98.5 148.5 98.5C139.124 98.5 131.5 90.6784 131.5 81C131.5 71.3216 139.124 63.5 148.5 63.5C157.876 63.5 165.5 71.3216 165.5 81Z" stroke="#5B2674"/>
<circle cx="148.5" cy="80.5" r="9.5" stroke="#5B2674" stroke-width="2"/>
<path d="M114.5 282.5C114.5 291.903 107.099 299.5 98 299.5C88.9009 299.5 81.5 291.903 81.5 282.5C81.5 273.097 88.9009 265.5 98 265.5C107.099 265.5 114.5 273.097 114.5 282.5Z" stroke="#5B2674"/>
<circle cx="97.5" cy="282.5" r="9.5" stroke="#5B2674" stroke-width="2"/>
<path d="M107 286V400" stroke="#5B2674" stroke-width="2"/>
<path d="M132.5 214C132.5 223.678 124.876 231.5 115.5 231.5C106.124 231.5 98.5 223.678 98.5 214C98.5 204.322 106.124 196.5 115.5 196.5C124.876 196.5 132.5 204.322 132.5 214Z" stroke="#5B2674"/>
<circle cx="115.5" cy="213.5" r="9.5" stroke="#5B2674" stroke-width="2"/>
<path d="M123 220V400" stroke="#5B2674" stroke-width="2"/>
<path d="M157.675 84.5031L157.252 401" stroke="#5B2674" stroke-width="2"/>
<path d="M140.304 400.576L139.88 153.141" stroke="#5B2674" stroke-width="2"/>
<path d="M147.5 149.5C147.5 158.903 140.099 166.5 131 166.5C121.901 166.5 114.5 158.903 114.5 149.5C114.5 140.097 121.901 132.5 131 132.5C140.099 132.5 147.5 140.097 147.5 149.5Z" stroke="#5B2674"/>
<path d="M141 149.5C141 154.703 136.567 159 131 159C125.433 159 121 154.703 121 149.5C121 144.297 125.433 140 131 140C136.567 140 141 144.297 141 149.5Z" stroke="#5B2674" stroke-width="2"/>
<path d="M97 353H165" stroke="#5B2674" stroke-width="9"/>
</svg>
