<svg width="246" height="403" viewBox="0 0 246 403" fill="none" xmlns="http://www.w3.org/2000/svg">
<path d="M102.5 6.07062C82.3659 22.482 73.1425 26.7911 59.5 28.5707C56.0058 38.0406 50.9993 41.1356 42.5 45.0707C53.8157 140.122 53.2317 190.592 43.5 277.071C58.1729 290.926 64.8907 301.489 76.5 328.071C76.9463 337.074 76.7991 344.363 76.5 357.571V400.571H168.5V359.071C168.702 334.831 169.101 330.265 170 328.071C176.743 307.569 184.701 296.644 203 277.071C194.06 179.795 192.953 128.192 204.5 44.5706C195.496 41.9001 192.124 38.0394 186.5 28.5707C176.266 27.8971 165.665 22.4247 142 6.07059C124.301 0.0279975 119.22 1.29512 102.5 6.07062Z" stroke="#5B2674" stroke-width="4"/>
<path d="M45.5 73.5706H35V60.5706C32.5984 57.2543 31.2694 55.7417 29 55.0706H18.5C8.35626 60.6658 4.99856 65.6203 3 77.5706C4.966 88.3047 7.34412 93.7153 18.5 100.071H29C31.2132 98.995 32.4737 98.3181 35 96.0706V82.5706H45.5" stroke="#5B2674" stroke-width="4"/>
<path d="M200.5 74.5706H211V61.5706C213.402 58.2543 214.731 56.7417 217 56.0706H227.5C237.644 61.6658 241.001 66.6203 243 78.5706C241.034 89.3047 238.656 94.7153 227.5 101.071H217C214.787 99.995 213.526 99.3181 211 97.0706V83.5706H200.5" stroke="#5B2674" stroke-width="4"/>
<path d="M200.5 223.571H211V210.571C213.402 207.254 214.731 205.742 217 205.071H227.5C237.644 210.666 241.001 215.62 243 227.571C241.034 238.305 238.656 243.715 227.5 250.071H217C214.787 248.995 213.526 248.318 211 246.071V232.571H200.5" stroke="#5B2674" stroke-width="4"/>
<path d="M196.5 148.571H207V135.571C209.402 132.254 210.731 130.742 213 130.071H223.5C233.644 135.666 237.001 140.62 239 152.571C237.034 163.305 234.656 168.715 223.5 175.071H213C210.787 173.995 209.526 173.318 207 171.071V157.571H196.5" stroke="#5B2674" stroke-width="4"/>
<path d="M47 223.571H36.5V210.571C34.0984 207.254 32.7694 205.742 30.5 205.071H20C9.85626 210.666 6.49856 215.62 4.5 227.571C6.466 238.305 8.84412 243.715 20 250.071H30.5C32.7132 248.995 33.9737 248.318 36.5 246.071V232.571H47" stroke="#5B2674" stroke-width="4"/>
<path d="M50 148.571H39.5V135.571C37.0984 132.254 35.7694 130.742 33.5 130.071H23C12.8563 135.666 9.49856 140.62 7.5 152.571C9.466 163.305 11.8441 168.715 23 175.071H33.5C35.7132 173.995 36.9737 173.318 39.5 171.071V157.571H50" stroke="#5B2674" stroke-width="4"/>
<circle cx="66.5" cy="75.0706" r="11" stroke="#5B2674" stroke-width="2"/>
<circle cx="66.5" cy="75.0706" r="5" stroke="#5B2674" stroke-width="2"/>
<circle cx="179.5" cy="230.071" r="11" stroke="#5B2674" stroke-width="2"/>
<circle cx="179.5" cy="230.071" r="5" stroke="#5B2674" stroke-width="2"/>
<circle cx="67.5" cy="230.071" r="11" stroke="#5B2674" stroke-width="2"/>
<circle cx="67.5" cy="230.071" r="5" stroke="#5B2674" stroke-width="2"/>
<circle cx="176.5" cy="153.071" r="11" stroke="#5B2674" stroke-width="2"/>
<circle cx="176.5" cy="153.071" r="5" stroke="#5B2674" stroke-width="2"/>
<circle cx="180.5" cy="75.0706" r="11" stroke="#5B2674" stroke-width="2"/>
<circle cx="180.5" cy="75.0706" r="5" stroke="#5B2674" stroke-width="2"/>
<circle cx="69.5" cy="153.071" r="11" stroke="#5B2674" stroke-width="2"/>
<circle cx="69.5" cy="153.071" r="5" stroke="#5B2674" stroke-width="2"/>
<path d="M71 77.0706L115 352.071V399.571" stroke="#5B2674" stroke-width="2"/>
<path d="M72.5 157.571L99 354.071V399.071" stroke="#5B2674" stroke-width="2"/>
<path d="M70 234.571L83 353.071V399.071" stroke="#5B2674" stroke-width="2"/>
<path d="M176 77.5706L131.5 354.071V399.571" stroke="#5B2674" stroke-width="2"/>
<path d="M174 157.571L148 354.071V400.071" stroke="#5B2674" stroke-width="2"/>
<path d="M176.5 234.571L163.5 354.571V401.071" stroke="#5B2674" stroke-width="2"/>
<path d="M77 358.071H168" stroke="#5B2674" stroke-width="8"/>
</svg>
