<svg width="142" height="370" viewBox="0 0 142 370" fill="none" xmlns="http://www.w3.org/2000/svg">
<path d="M128 290C122.836 273.823 117.376 262.473 104 239" stroke="#5B2674" stroke-width="3"/>
<path d="M43.0241 216.099L47.1948 205.116M43.0241 216.099C43.6703 219.392 44.054 219.084 45.8046 217.472M43.0241 216.099L37.9272 216.099M47.1948 205.116C48.613 204.819 49.2148 204.752 49.5122 205.042M47.1948 205.116L43.0241 203.057M45.8046 217.472L49.9752 206.947C49.8027 205.916 49.7951 205.317 49.5122 205.042M45.8046 217.472L47.6588 224.336L35.6102 216.099M68.0487 150.203L63.878 161.186C64.5243 164.479 64.908 164.171 66.6585 162.559L70.8292 152.034C70.4752 149.919 70.8157 149.624 68.0487 150.203ZM68.0487 150.203H63.878M75 147.915L63.878 147.25M59.7073 147L54.1461 161.186M59.7073 147H55.0734M59.7073 147L63.878 147.25M54.1461 161.186H59.7073M54.1461 161.186L49.9759 161.643M59.7073 161.186L63.878 150.203M59.7073 161.186L64.805 163.932L70.8292 165.304M63.878 150.203V147.25M69.4391 168.508C64.5129 167.334 61.6291 166.848 56.0002 166.665M52.7559 166.22L47.1948 178.575M52.7559 166.22L56.0002 166.665M52.7559 166.22L48.1222 166.665L44.415 178.575H47.1948M47.1948 178.575L51.3661 179.49L51.4685 179.207M56.0002 166.665C54.2305 171.563 53.2382 174.309 51.4685 179.207M51.4685 179.207L57.8538 181.996M57.8538 181.996C58.2543 182.189 58.7953 181.703 59.7073 180.863L63.878 170.338C63.5239 168.223 63.8645 167.928 61.0975 168.508L56.9268 179.49C57.2364 181.068 57.4857 181.819 57.8538 181.996ZM57.8538 181.996L62.0245 185.439M61.0975 189.558C57.5825 187.555 49.9757 183.621 49.5122 184.524M45.3418 184.066L40.7077 196.879M45.3418 184.066C47.3465 182.504 48.8859 182.842 49.5122 184.524M45.3418 184.066L40.7077 185.884L37.0004 197.795L40.7077 196.879M40.7077 196.879L43.9516 198.71L44.0539 198.426M49.5122 184.524C47.7425 189.422 45.8237 193.528 44.0539 198.426M44.0539 198.426L50.4393 201.216M50.4393 201.216C50.8397 201.408 51.3807 200.922 52.2927 200.083L56.4634 189.558C56.1094 187.443 56.4658 186.231 53.6988 186.811L49.5122 198.71C49.8218 200.287 50.0711 201.038 50.4393 201.216ZM50.4393 201.216L54.61 204.659M53.6988 209.692L49.5122 205.042M35.6102 216.099H37.9272M35.6102 216.099L34.3588 214.726M37.9272 216.099L43.0241 203.057M43.0241 203.057L40.0119 201.57M40.0119 201.57L36.9997 200.083L31.4388 211.523L34.3588 214.726M40.0119 201.57L34.3588 214.726M18 282.452L23.5609 266.436C26.3279 265.856 26.9142 266.609 27.2682 268.724L21.2439 283.825C19.4933 285.437 18.6463 285.745 18 282.452ZM25.8779 260.945L31.4388 244.928C34.2058 244.349 34.792 245.101 35.1461 247.216L29.1218 262.317C27.3712 263.929 26.5241 264.238 25.8779 260.945ZM33.7559 238.979L39.3168 222.963C42.0838 222.384 42.67 223.136 43.0241 225.251L36.9997 240.352C35.2492 241.964 34.4021 242.272 33.7559 238.979Z" stroke="#5B2674"/>
<path d="M45.5088 231L43.2281 225.129L42.3158 223.323H39.579L36.386 221.516M36.386 221.516L30.4561 236.871M36.386 221.516L33.193 220.161M30.4561 236.871L35.0176 241.387L38.6667 247.258M30.4561 236.871H26.807M26.807 236.871L24.5263 234.613L30.4561 217L33.193 220.161M26.807 236.871L33.193 220.161M36.386 255.387L35.4737 247.71L35.0176 245.452L31.8246 245L28.5072 243.194M19.5088 259.452L15.8596 256.742L22.7018 240.032L25.1898 241.387M19.5088 259.452L25.1898 241.387M19.5088 259.452H22.7018M25.1898 241.387L28.5072 243.194M28.5072 243.194L22.7018 259.452M22.7018 259.452L26.807 263.065L30.4561 268.032M29.5439 272.548L26.807 266.226H23.614L20.5731 264.419M11.2982 280.226L7.19298 277.516L14.4912 260.806L20.5731 264.419M11.2982 280.226L17.2281 263.065L20.5731 264.419M11.2982 280.226L14.0351 280.677M20.5731 264.419L14.0351 280.677M14.0351 280.677L19.5088 284.742L25.1898 287.452L28.1754 278.419L23.614 278.871M4.45614 329L9.92982 332.613C27.3447 330.987 29.3447 334.958 21.3333 349.323M21.3333 349.323L19.9649 357M21.3333 349.323C17.6671 347.913 12.6667 351.129 11.2982 349.323C9.92982 347.516 8.68569 347.394 9.92982 345.71C11.174 344.025 9.47702 343.539 8.5614 342.548C6.80923 340.652 7.58309 335.924 8.5614 334.871C7.47553 333.141 6.38444 332.392 4 331.258M46.4211 333.065C51.969 333.065 56 337.959 56 343.452C56 348.944 51.969 353.839 46.4211 353.839C40.8731 353.839 36.8421 348.944 36.8421 343.452C36.8421 337.959 40.8731 333.065 46.4211 333.065Z" stroke="#5B2674"/>
<path d="M82.0099 334.366C68.7247 336.149 63.0579 334.885 62 321.134C66.1011 313.992 70.1242 313.196 80.1042 317.027M80.1042 317.027C82.5715 316.04 83.5876 315.348 83.4391 313.377M80.1042 317.027C80.046 319.967 81.7807 321.111 87.2505 322.959M83.4391 313.377C74.9221 306.703 71.456 303.301 72.9578 299.231C76.3822 293.104 78.763 290.767 84.8684 291.018C95.5227 292.505 97.8001 296.702 96.779 308.814M83.4391 313.377C87.3796 313.243 88.5688 314.332 89.6326 317.483M77.2456 322.959C75.1756 325.549 74.2773 327.409 72.9578 331.172C67.9018 328.044 66.5205 326.092 68.1935 322.046C71.4316 320.036 73.4371 320.417 77.2456 322.959ZM89.1562 298.775C87.1009 301.639 86.3436 303.051 85.8212 305.163C81.027 305.53 79.354 304.64 78.1984 301.057C80.7136 295.297 82.9957 294.475 89.1562 298.775Z" stroke="#5B2674"/>
<path d="M66.4857 143C76.9221 145.149 81.5572 146.441 87.5143 148.912C88.311 147.295 89.6039 146.735 93 146.183M89.3429 160.736C87.2149 157.842 86.4938 156.056 86.1429 152.55C82.1398 150.529 79.71 149.793 75.1714 148.912C72.6667 154.844 71.8405 158.467 71.0571 165.284C73.1373 166.791 75.1972 167.59 80.6571 168.922C83.5087 165.462 84.9841 165.651 87.5143 166.194M79.2857 183.021C78.5403 179.863 78.178 178.063 79.2857 173.925C74.8042 171.661 72.4537 170.539 69.6857 169.832L62.8286 185.295L72.4286 188.933L79.2857 185.295M72.4286 202.576C70.0132 199.333 69.4313 197.338 69.6857 193.481C66.8878 191.652 64.9806 190.954 61 190.297C58.9382 196.021 57.8277 199.271 54.6 203.941C59.0062 207.551 61.2519 208.469 65.1143 209.398C66.9108 206.546 68.371 205.483 72.4286 205.305M64.2 223.041C61.9537 220.774 62.1529 218.408 62.8286 213.946C58.4862 211.455 56.8188 210.785 54.6 210.307C51.3485 215.938 50.0234 219.123 48.6571 224.86C51.8265 227.652 53.4857 228.172 56.4286 228.953C59.4008 225.328 61.3564 224.692 65.1143 224.86M55.5143 246.69C54.3767 242.697 53.902 238.24 54.6 234.866C50.254 231.043 48.4495 232.146 45.9143 231.227C43.2364 237.621 41.735 241.206 39.0571 247.599C40.728 250.821 42.8889 251.852 47.7429 253.057C49.7641 248.953 51.7486 248.427 56.4286 249.873M45.9143 269.429C43.4811 265.156 43.6584 262.769 44.0857 258.514C41.681 256.838 40.3153 255.922 36.7714 255.786L29.9143 271.703C31.8447 276.344 33.4605 276.9 36.7714 276.251C40.0987 273.491 42.0493 272.414 45.9143 272.612M38.6 295.351C33.6032 288.694 32.7216 285.863 34.0286 282.163C31.6427 279.722 30.5007 279.315 28.5429 278.979L21.2286 298.99C21.7509 300.651 23.5071 301.142 27.6286 301.718C29.8194 296.788 32.7346 296.422 38.6 296.716M30.3714 319C25.5158 315.09 24.0589 312.545 24.4286 307.176C21.0653 306.059 19.172 305.026 15.7429 300.354C15.7429 300.354 17.4146 292.87 18.4857 288.075H13" stroke="#5B2674" stroke-width="2"/>
<path d="M43.2556 19.6869L30.9345 6.92317C24.4117 6.46215 21.1644 5.54477 16.3317 2.36471C14.0688 1.12514 13.9608 1.66976 33.2162 26.9804M43.2556 19.6869C51.4758 24.1985 54.4153 28.1987 57.8584 36.5532M43.2556 19.6869C39.3241 24.4244 37.1259 25.9435 33.2162 26.9804M57.8584 36.5532C50.0234 35.9515 49.0865 37.7855 48.2754 44.7584M57.8584 36.5532L77.0246 62.0805M48.2754 44.7584C42.2732 41.8307 36.8633 37.8243 33.2162 26.9804M48.2754 44.7584C75.9936 72.7078 86.3193 85.9847 82.5007 99.4599M82.5007 99.4599C91.7908 104.939 96.6595 106.734 104.861 108.121C108.73 92.5012 102.619 85.5089 87.5204 73.9325C84.4753 72.9893 83.7286 72.1398 83.4133 70.2858C82.0527 66.3745 80.5664 64.6326 77.0246 62.0805M82.5007 99.4599L79.7627 104.018M77.0246 62.0805C78.1357 64.1169 79.4322 62.407 82.5007 56.1545C85.4899 58.272 86.579 59.5745 87.5204 62.0805C90.1154 61.6797 91.0091 61.7317 92.0838 62.0805C94.1668 65.1524 94.3715 66.9818 94.3654 70.2858C112.406 87.3445 115.54 97.233 109.425 115.415M109.425 115.415C98.3797 111.62 91.9503 109.206 79.7627 104.018M109.425 115.415C106.411 114.811 104.508 114.289 103.492 115.415L93.4529 146.412C98.0962 153.445 94.1006 156.121 87.5205 160.999C89.0645 174.95 87.1377 179.627 78.8501 182.424C85.3257 195.197 82.6905 198.853 72.005 202.025C77.7948 214.07 76.3724 218.688 64.2473 222.538C71.6729 235.218 69.0412 240.063 55.5769 245.787C64.0391 259.723 60.8774 264.46 46.4501 269.491C54.633 283.969 52.7694 289.494 38.6924 295.018C45.6799 309.953 42.3104 312.549 31.391 318.266C35.368 333.96 39.1713 333.802 46.9064 321.001C62.6315 272.613 75.5919 255.597 103.949 238.037C103.541 240.699 104.128 223.838 105.774 222.538C107.42 221.239 139.845 287.439 139.999 297.297C140.052 300.682 137.128 292.989 126.766 290.004C101.807 298.155 92.0545 310.207 80.2188 341.514C67.714 364.991 59.8066 368.471 45.0808 367.953C31.3738 366.006 24.6707 363.696 15.8752 355.646C2.73094 352.216 -0.706785 347.364 4.01042 330.574C2.84945 319.097 4.546 309.646 12.2245 286.813C8.05706 285.046 7.28715 284.259 4.9231 281.798C24.4985 233.455 35.3472 197.325 57.4019 141.398C60.4779 141.69 62.3169 142.064 65.616 142.765C73.5107 124.703 77.3486 115.303 79.7627 104.018" stroke="#5B2674" stroke-width="3"/>
</svg>
