<svg width="157" height="385" viewBox="0 0 157 385" fill="none" xmlns="http://www.w3.org/2000/svg">
<path d="M58.8572 147.872L79.7399 114.458C90.3724 98.1577 96.7844 88.9718 112.555 72.1328C125.454 57.4934 150.16 64.7684 155.812 61.7372C161.465 58.7061 37.5285 -11.8741 42.4495 3.0765C47.3704 18.0271 64.8 17.6041 54.3824 54.3118C43.9648 91.0195 20.0744 131.044 20.821 130.794M58.8572 147.872C69.8603 153.072 76.5463 156.319 89.4354 162.723C106.53 171.057 116.875 177.918 127.472 193.909C139.531 212.108 140.896 248.115 140.896 248.115C140.896 248.115 146.013 290.569 139.405 316.429C135.5 331.708 135.443 345.005 117.776 367.664C108.176 379.977 93.9102 384 81.2315 384C68.5527 384 54.688 378.142 41.7036 367.664C23.9881 353.368 19.7863 337.157 14.1087 316.429C14.1087 316.429 5.50567 275.038 3.66742 248.115C2.16615 226.127 0.821649 213.537 3.66742 191.682C6.57389 169.36 8.49771 157.059 18.5836 135.991M58.8572 147.872L20.821 130.794M18.5836 135.991C19.9332 134.876 9.63391 132.279 9.63391 132.279M18.5836 135.991L54.3824 152.921M9.63391 132.279C6.93502 130.984 6.73628 126.493 11.8713 127.823M9.63391 132.279C7.79767 132.534 6.70678 133.1 4.49998 135C1.52123 133.377 0.955962 132.026 1.49998 129L3.99998 123.5C5.87211 121.453 6.95054 120.825 8.99998 122C9.74862 125.026 10.4413 126.173 11.8713 127.823M11.8713 127.823C16.2146 128.816 17.5659 130.159 20.821 130.794M78.2483 164.208C96.8479 170.714 106.589 179.801 106.589 179.801M78.2483 164.208C51.8001 169.971 42.834 180.162 34.9914 208.018M78.2483 164.208L66.3153 158.565L54.3824 152.921M105.843 213.216C96.8172 209.344 82.7249 211.673 82.7231 213.216C82.7231 213.216 82.7231 194.652 82.7231 188.712C82.7231 182.771 76.5331 181.034 71.536 181.286C66.2921 181.552 61.0947 182.029 60.3489 188.712C59.6031 195.395 59.6031 205.79 59.6031 205.79M105.843 213.216C112.392 195.826 112.903 188.267 106.589 179.801M105.843 213.216C105.481 215.46 105.364 217.073 105.31 220.641M59.6031 205.79H45.4327C51.5333 158.436 105.331 177.317 106.589 179.801M59.6031 205.79V210M34.9914 208.018C34.0647 217.297 33.3614 222.542 34.2456 231.779C35.7603 247.604 39.473 257.396 45.4327 271.134C37.9358 274.322 35.1191 277.216 32.754 284.5M34.9914 208.018C32.56 225.336 31.7199 239.261 32.754 284.5M34.9914 208.018C37.8055 186.073 41.0894 173.923 54.3824 152.921M32.754 284.5L31.2623 346.873C32.9827 357.074 37.329 364.651 46.1785 363.951C53.3786 363.382 57.1557 360.138 58.4393 351.328C58.6361 349.977 58.7743 348.496 58.8573 346.873L59.6031 299.35H62.5863C62.5863 299.35 62.808 322.457 61.8405 349.101C61.8213 349.63 61.8215 350.151 61.8405 350.666M110.318 216.186L117.03 196.88C125.607 219.502 128.695 232.657 128.217 257.768M110.318 216.186C116.835 221.053 119.225 228.538 119.268 257.768H128.217M110.318 216.186C110.318 216.186 110.353 219.489 110.404 225.096M128.217 257.768C128.227 258.772 128.235 259.762 128.242 260.738M52.145 297.865C46.4734 306.987 43.9526 314.561 43.1953 327.098V329.052M39.3891 320.141L40.2121 284.5C41.3215 281.298 42.564 280.091 45.4327 278.559H47.6701C50.5784 280.12 51.5991 281.393 52.145 284.5V288.955M39.3891 320.141L38.7204 349.101C39.8086 353.714 41.033 355.332 44.6869 356.526H48.4159C51.4875 354.919 52.0133 353.061 52.145 349.101V346.873C48.3812 341.387 45.7879 338.415 43.1953 329.052M39.3891 320.141L43.1953 329.052M52.145 307.518C46.6619 316.299 47.0372 338.235 52.145 340.19M70.8996 355.783C70.5088 354.204 70.2239 352.274 70.0444 349.843H98.3851M70.8996 355.783C86.1796 357.539 92.3165 356.347 98.3851 349.843M70.8996 355.783C71.4797 358.128 72.2933 359.698 73.3424 360.981M98.3851 349.843H102.86C102.804 351.196 102.732 352.426 102.615 353.556M58.8573 349.101L61.8405 350.666M61.8405 350.666C61.8771 351.658 61.9833 352.621 62.1538 353.556C62.3901 354.851 62.7499 356.09 63.2186 357.269M73.3424 360.981C74.4607 362.349 75.8466 363.39 77.5025 364.694C86.2096 367.933 89.0237 367.535 96.1477 364.694C100.753 361.492 102.109 358.454 102.615 353.556M73.3424 360.981C89.6984 362.334 95.919 360.545 102.615 353.556M63.2186 357.269C71.0592 376.982 109.384 379.819 110.318 349.101C110.346 348.167 110.373 347.187 110.399 346.163M63.2186 357.269C61.8111 356.514 60.1043 355.865 58.0355 353.556M110.399 346.163C111.388 345.461 115.1 338.909 117.776 334.25M110.399 346.163C111.14 316.237 110.625 249.263 110.404 225.096M117.776 334.25C119.94 330.931 123.133 325.705 124.447 320.884M117.776 334.25C118.759 329.463 119.151 326.491 119.248 321.627M128.242 260.738H119.268V317.171M128.242 260.738C128.449 289.09 127.708 305.866 125.336 317.171M119.268 317.171H125.336M119.268 317.171L119.248 321.627M125.336 317.171C125.062 318.479 124.766 319.713 124.447 320.884M119.268 320.141C119.264 320.657 119.257 321.151 119.248 321.627M120.014 320.884H124.447M110.559 337.962C111.102 338.965 113.319 328.654 113.309 320.884M110.404 225.096C112.272 225.794 113.188 243.71 113.301 245.887V317.171M111.064 320.884H113.309M113.309 320.884C113.309 320.634 113.306 320.386 113.301 320.141V317.171M111.064 317.171H113.301M105.31 220.641V234.007C98.5303 232.204 82.7231 231.779 82.7231 231.779C82.634 231.069 82.5448 222.115 83.4689 219.156C92.9208 216.201 97.8128 216.107 105.31 220.641ZM70.0444 308.261V346.873H102.86V308.261C93.6128 308.951 86.7813 309.019 70.0444 308.261Z" stroke="#5B2674" stroke-width="2"/>
<path d="M53 347V297" stroke="#5B2674" stroke-width="2"/>
<path d="M45.0913 209.27H59.5L59.9022 239.685C60.5958 243.206 61.7769 245.017 65.8266 247.845C69.5502 250.121 71.8031 250.972 76.1942 251.555M45.0913 209.27C41.9604 227.21 42.2583 237.282 46.5724 255.264C48.6033 262.338 50.2987 266.012 54.5475 271.922M45.0913 209.27L45.5 206M93.2269 261.94L95.4485 265.65L99.1512 267.875H103.595L107.297 265.65L108.778 261.94V258.973L107.297 256.006L103.595 253.78H99.1512L95.4485 256.006L93.2269 259.715M93.2269 261.94H99.1512V263.424C100.98 264.579 101.977 264.871 103.595 263.424C104.645 261.496 104.87 260.48 103.595 258.973C101.971 257.822 100.983 257.978 99.1512 258.973V259.715H93.2269M93.2269 261.94H82.1187M93.2269 259.715H82.1187M53.9779 265.269C54.846 265.566 55.8558 265.7 56.94 265.65C58.3969 265.582 59.8066 264.916 60.9514 264.166M53.9779 265.269C52.0711 264.618 50.8472 263.182 51.0157 261.199L51.0157 260.457C50.8472 258.473 52.0711 257.038 53.9779 256.386M53.9779 265.269C55.7532 267.878 56.8231 269.036 59.1617 269.359H102.113C107.495 268.738 109.904 268.621 111 260.457C110.498 251.999 107.785 252.39 102.113 252.296C102.113 252.296 60.6428 252.296 59.1617 252.296C57.6806 252.296 55.0742 254.673 53.9779 256.386M53.9779 256.386C54.846 256.089 55.8558 255.955 56.94 256.006C58.3969 256.074 59.8066 256.74 60.9514 257.489M60.9514 264.166C62.5301 263.132 63.605 261.94 63.605 261.94H82.1187M60.9514 264.166C58.7803 266.047 67.8839 265.815 82.1187 265.65C83.9995 264.114 83.5531 263.322 82.1187 261.94M82.1187 259.715H63.605C63.605 259.715 62.5301 258.523 60.9514 257.489M82.1187 259.715C84.0298 257.899 83.8658 256.931 82.1187 255.264C67.3371 255.318 57.3804 255.14 60.9514 257.489M93.2269 278.261L95.4485 281.97L99.1512 284.196H103.595L107.297 281.97L108.778 278.261V275.294L107.297 272.326L103.595 270.101H99.1512L95.4485 272.326L93.2269 276.035M93.2269 278.261H99.1512V279.745C100.98 280.899 101.977 281.192 103.595 279.745C104.645 277.816 104.87 276.801 103.595 275.294C101.971 274.142 100.983 274.298 99.1512 275.294V276.035H93.2269M93.2269 278.261H82.1187M93.2269 276.035H82.1187M53.9779 281.59C54.846 281.887 55.8558 282.021 56.94 281.97C58.3969 281.902 59.8066 281.236 60.9514 280.487M53.9779 281.59C52.0711 280.938 50.8472 279.503 51.0157 277.519L51.0157 276.777C50.8472 274.794 52.0711 273.358 53.9779 272.707M53.9779 281.59C55.7532 284.199 56.8231 285.356 59.1617 285.679H102.113C107.495 285.058 109.904 284.941 111 276.777C110.498 268.32 107.785 268.71 102.113 268.617H59.1617C57.8972 268.617 55.8124 270.349 54.5475 271.922M53.9779 272.707C54.846 272.41 55.8558 272.276 56.94 272.326C58.3969 272.394 59.8066 273.06 60.9514 273.81M53.9779 272.707C54.1382 272.456 53.9778 271.922 54.5475 271.922M60.9514 280.487C62.5301 279.453 63.605 278.261 63.605 278.261H82.1187M60.9514 280.487C58.7803 282.368 67.8839 282.135 82.1187 281.97C83.9995 280.434 83.5531 279.643 82.1187 278.261M82.1187 276.035H63.605C63.605 276.035 62.5301 274.844 60.9514 273.81M82.1187 276.035C84.0298 274.219 83.8658 273.252 82.1187 271.584C67.3371 271.639 57.3804 271.461 60.9514 273.81M93.2268 294.582L95.4485 298.291L99.1512 300.516H103.594L107.297 298.291L108.778 294.582V291.614L107.297 288.647L103.594 286.421H99.1512L95.4485 288.647L93.2268 292.356M93.2268 294.582H99.1512V296.065C100.98 297.22 101.977 297.512 103.594 296.065C104.645 294.137 104.87 293.122 103.594 291.614C101.971 290.463 100.983 290.619 99.1512 291.614V292.356H93.2268M93.2268 294.582H82.1186M93.2268 292.356H82.1186M53.9778 297.91C54.846 298.207 55.8557 298.341 56.94 298.291C58.3968 298.223 59.8065 297.557 60.9514 296.807M53.9778 297.91C52.0711 297.259 50.8471 295.823 51.0156 293.84L51.0156 293.098C50.8471 291.114 52.0711 289.679 53.9778 289.027M53.9778 297.91C55.7532 300.519 56.8231 301.677 59.1616 302H102.113C107.495 301.379 109.904 301.262 111 293.098C110.498 284.64 107.785 285.031 102.113 284.938H59.1616C57.6805 284.938 55.0741 287.314 53.9778 289.027M53.9778 289.027C54.846 288.73 55.8557 288.596 56.94 288.647C58.3968 288.715 59.8065 289.381 60.9514 290.131M60.9514 296.807C62.53 295.774 63.6049 294.582 63.6049 294.582H82.1186M60.9514 296.807C58.7803 298.688 67.8838 298.456 82.1186 298.291C83.9994 296.755 83.5531 295.964 82.1186 294.582M82.1186 292.356H63.6049C63.6049 292.356 62.53 291.164 60.9514 290.131M82.1186 292.356C84.0298 290.54 83.8658 289.572 82.1186 287.905C67.3371 287.959 57.3804 287.781 60.9514 290.131M54.5475 271.922C50.0662 271.016 48.1965 270.971 45.8318 271.584M66.5671 212.237H76.1942V189.982C76.0905 188.343 73.8315 187.158 71.7509 187.014C69.4249 186.854 67.0682 188.063 66.5671 189.982V212.237Z" stroke="#5B2674" stroke-width="2"/>
<path d="M68.9333 241.569C68.7634 228.297 69.9605 221.805 76.2667 216.98M76.2667 216.98V214H66.7333V238.588C69.8537 243.229 72.0529 244.673 76.7972 245.129M76.2667 216.98L76.7972 242.314L77 252H66V251.255" stroke="#5B2674" stroke-width="2"/>
<path d="M83 238C93.1244 237.673 97.4457 238.102 104.97 240.333M83 238V245.778C92.6825 246.391 96.9857 245.571 104.97 246.556C105.007 243.43 105.012 243.271 104.97 240.333M83 238V231V252V246.556M104.97 240.333V232.556" stroke="#5B2674" stroke-width="2"/>
</svg>
