<svg width="368" height="368" viewBox="0 0 368 368" fill="none" xmlns="http://www.w3.org/2000/svg">
<path d="M184.5 210L262.5 132C268.715 125.52 272.661 123.25 282 126C289.042 127.978 291.278 130.288 293 136C294.287 144.475 293.019 148.617 287.5 155L283.5 159C276.008 155.581 272.191 157.778 264.5 166L202.5 227.5M179.5 205L262.5 122C269.334 117.164 275.622 116.438 283.5 119C290.732 121.352 294.842 125.082 298 132C301.738 140.188 301.05 145.82 296.5 155L213 238.5M177 203C176.6 202.2 231.833 147.5 259 120.5C266.407 114.708 271.132 113.278 279.5 114C291.805 115.062 300.588 122.13 304 134C306.75 143.569 304.504 149.947 299 159L216.5 242M208.5 234L278 164.5C274.789 162.483 250.159 187.959 207 232.5" stroke="#5B2674"/>
<path d="M220.5 246L302.5 164C310.978 153.266 313.757 143.169 309.5 130.5C304.798 116.506 294.229 108.491 279.5 107.5M279.5 107.5C268.714 106.774 261.743 109.431 253.5 117L172.5 197.5M279.5 107.5C308.187 82.6658 323.383 77.2666 349 82.5C364.108 81.9984 368.246 77.4743 365 59C352.771 29.082 341.957 15.0145 305 2.00001C291.113 -0.804246 287.204 2.85969 285.5 16.5C290.749 51.7326 282.583 65.9324 260.5 87.5L163.5 188.5" stroke="#5B2674" stroke-width="2"/>
<path d="M183.5 296.5C159.531 321.362 144.563 339.16 132.5 334C118.505 347.795 107 357.42 98 358C79 359.225 63.1852 351.304 58.5 321.5C52.3666 327.172 48.7745 329.461 42 331.5L23.5 349.5L16 366.5C9.07501 361.821 6.36672 359.067 2 352L19 345L37.5 326.5L40 317L120 233.5M183.5 296.5L195.5 308.5C205.848 308.216 208.705 305.364 208 295L190 277.5M183.5 296.5L129.5 242.925L128.5 241.933M190 277.5L192 275.5M190 277.5L133 219.5M192 275.5L211 293C222.469 293.038 224.586 289.657 222.5 279L205 262M192 275.5L134.5 218M205 262L207 260M205 262L147.5 204.5M207 260L225.5 278.5C234.915 278.813 238.878 277.368 238 265L220 247L163 189.5L158.5 185L154 189.5L150.5 186.5L152.5 184.5C153.425 179.114 151.926 178.639 147.5 180L139.5 188C138.302 193.102 139.687 193.908 144.5 193L146 191.5L149.5 195L145 199L149 203M207 260L149 203M120 233.5L115.5 229L120 224.5L116.5 221L113.5 223.5C109.755 223.433 108.501 222.594 109 218.5L118 209.5C122.205 208.471 123.374 209.363 123 214L121 216L124 219L128.5 215L133 219.5M120 233.5L125 238.461M133 219.5L134.5 218M134.5 218L130 213.5L134.5 209.5L131 206L129.5 207.5C124.4 209.141 123.924 207.487 124.5 203L132.5 195C137.419 193.573 138.388 194.695 137.5 199.5L135.5 201.5L139 204.5L143.5 200.5L147.5 204.5M147.5 204.5L149 203M128.5 241.933L46.5 324C44.1784 324.863 43.5245 324.462 44 321.5L125 238.461M128.5 241.933L125 238.461" stroke="#5B2674" stroke-width="2"/>
<path d="M133 247.5L69.9999 310C64.7016 319.326 63.7011 325.109 67.4999 337C71.9032 345.121 75.4617 348.574 84.4999 352C93.83 354.285 98.7463 353.313 107 349.5L171.5 286M135.5 250L74.5 311C68.9447 319.824 67.6729 326.365 71.5 335C74.0181 340.682 76.947 343.709 82.5 346.5C92.0242 351.286 100.826 349.795 109.5 342.5L169 283M140.5 254.5L80.5 314C76.5357 319.924 74.7837 324.594 77 331C78.8961 336.48 82.0083 339.637 87.5 341.5C93.3065 343.469 98.9373 342.552 103 339L120.5 322.5C118.04 314.804 118.82 310.524 127 303L157.5 272.5M164 278.5L127 315.5C124.865 314.382 139.481 299.999 162.5 277M176.5 291L139.5 327.5C139.899 329.664 153.266 316.659 178 292.5" stroke="#5B2674"/>
</svg>
